<?xml version="1.0" encoding="utf-8"?>
<!-- Generator: Adobe Illustrator 16.0.0, SVG Export Plug-In . SVG Version: 6.00 Build 0)  -->
<!DOCTYPE svg PUBLIC "-//W3C//DTD SVG 1.1//EN" "http://www.w3.org/Graphics/SVG/1.1/DTD/svg11.dtd">
<svg version="1.1" id="Capa_1" xmlns="http://www.w3.org/2000/svg" xmlns:xlink="http://www.w3.org/1999/xlink" x="0px" y="0px"
	 width="2880px" height="2016px" viewBox="0 0 2880 2016" enable-background="new 0 0 2880 2016" xml:space="preserve">
<g>
	<g>
		<path d="M2326.826,866.494c-8.249-1.338-16.598-1.956-24.949-1.848H879.629l31.014-14.426
			c30.313-14.348,57.891-33.874,81.496-57.696l398.834-398.835c52.527-50.143,61.354-130.806,20.916-191.123
			c-47.063-64.274-137.319-78.23-201.6-31.166c-5.191,3.804-10.128,7.951-14.768,12.414l-721.218,721.22
			c-56.362,56.3-56.413,147.629-0.111,203.992c0.036,0.035,0.075,0.076,0.111,0.111l721.22,721.22
			c56.407,56.25,147.736,56.124,203.991-0.284c4.427-4.439,8.561-9.164,12.374-14.142c40.438-60.315,31.611-140.979-20.916-191.123
			L992.86,1225.256c-21.163-21.186-45.495-38.95-72.122-52.647l-43.273-19.475h1416.475
			c73.687,2.736,138.334-48.735,152.177-121.164C2458.867,953.334,2405.461,879.251,2326.826,866.494z"/>
	</g>
</g>
</svg>
